<svg width="81" height="55" viewBox="0 0 81 55" fill="none" xmlns="http://www.w3.org/2000/svg">
<path d="M40.3872 0.351196L0.418457 14.9163L40.3872 34.336L59.4239 25.0866L41.5653 19.7808C41.1976 19.9522 40.7951 20.0416 40.3872 20.0425C39.6609 20.0425 38.9643 19.7621 38.4507 19.263C37.9371 18.7639 37.6486 18.087 37.6486 17.3812C37.6486 16.6755 37.9371 15.9986 38.4507 15.4995C38.9643 15.0004 39.6609 14.72 40.3872 14.72L39.9343 16.1508L43.1071 17.0993L43.1085 17.1086L47.7905 18.5L74.4485 26.4701V28.4903C74.0798 28.734 73.7779 29.0616 73.5691 29.4445C73.3603 29.8274 73.2509 30.2541 73.2503 30.6874C73.2508 31.1307 73.3653 31.5669 73.5833 31.9563C73.8013 32.3457 74.1159 32.676 74.4986 32.9172C73.252 37.4953 73.2503 47.8825 73.2503 51.9769C75.9889 53.7059 75.9889 53.7691 78.7275 51.9769C78.7275 47.883 78.7262 37.4978 77.4798 32.9187C77.8626 32.6773 78.1773 32.3467 78.3952 31.957C78.6131 31.5672 78.7274 31.1308 78.7275 30.6873C78.7275 30.2535 78.6183 29.8262 78.4095 29.4428C78.2006 29.0593 77.8985 28.7313 77.5294 28.4873V24.2593L67.3754 21.2234L80.356 14.9163L40.3872 0.351196ZM17.0446 26.8618L14.7985 39.9582C19.2786 40.5276 24.6379 43.0581 29.5646 46.0503C32.3666 47.7521 34.991 49.6201 37.1225 51.4325C38.4253 52.5403 39.5148 53.6031 40.3872 54.6488C41.2596 53.6029 42.3491 52.5403 43.652 51.4325C45.7834 49.6201 48.4077 47.7521 51.2098 46.0503C56.1365 43.0581 61.4958 40.5276 65.9759 39.9582L63.7294 26.8618H62.6597L40.3872 37.6834L18.1144 26.8618H17.0446Z" fill="#263238"/>
</svg>
