<?xml version="1.0" encoding="UTF-8"?>
<svg version="1.1" xmlns="http://www.w3.org/2000/svg" width="360" height="360">
<path d="M0 0 C1.26650391 -0.03738281 2.53300781 -0.07476562 3.83789062 -0.11328125 C5.05798828 -0.12488281 6.27808594 -0.13648438 7.53515625 -0.1484375 C8.64383057 -0.16825684 9.75250488 -0.18807617 10.89477539 -0.20849609 C14.97417331 0.57380039 16.24004153 2.2649804 18.9375 5.375 C20.29804993 8.20700073 20.29804993 8.20700073 21.34106445 11.33935547 C21.74110184 12.51762909 22.14113922 13.69590271 22.55329895 14.90988159 C22.96975623 16.1871117 23.385568 17.46455243 23.80078125 18.7421875 C24.24103186 20.06382298 24.68230791 21.38511728 25.1245575 22.70608521 C26.04576139 25.46849534 26.95653703 28.23405548 27.85961914 31.00244141 C29.01343568 34.53762546 30.18971129 38.06482144 31.3735323 41.59005547 C32.28660998 44.31560122 33.18919384 47.04453141 34.08855247 49.7746315 C34.51830054 51.07602589 34.95087533 52.37649058 35.38640785 53.67596054 C35.99492651 55.49783388 36.58820438 57.32477594 37.1809082 59.15185547 C37.52112503 60.18712372 37.86134186 61.22239197 38.21186829 62.28903198 C39.03147539 65.77465872 39.17608463 68.80604594 38.9375 72.375 C37.234375 74.3515625 37.234375 74.3515625 34.6875 76 C33.70523438 76.65742187 32.72296875 77.31484375 31.7109375 77.9921875 C30.45527134 78.78984715 29.19716923 79.58367713 27.9375 80.375 C25.30801597 82.03676731 22.68092384 83.70189356 20.05957031 85.37646484 C18.24187439 86.53344478 16.41572921 87.67726589 14.58105469 88.80712891 C13.73704102 89.33999512 12.89302734 89.87286133 12.0234375 90.421875 C11.2607959 90.89463867 10.4981543 91.36740234 9.71240234 91.85449219 C7.6126492 93.65329035 7.21032773 94.65278556 6.9375 97.375 C8.17560299 101.54070067 10.11518176 105.43497527 11.9375 109.375 C12.66646484 110.97408203 12.66646484 110.97408203 13.41015625 112.60546875 C22.52655305 131.7118237 34.74264706 149.01923933 49.2578125 164.38671875 C50.9375 166.375 50.9375 166.375 51.9375 169.375 C52.5975 169.375 53.2575 169.375 53.9375 169.375 C53.9375 170.035 53.9375 170.695 53.9375 171.375 C54.576875 171.643125 55.21625 171.91125 55.875 172.1875 C57.9375 173.375 57.9375 173.375 58.9375 176.375 C60.26662559 177.05001659 61.60095061 177.71480462 62.9375 178.375 C64.69998601 179.96379999 66.42447727 181.5950484 68.125 183.25 C82.62267345 196.91604516 100.17786326 207.24189788 118 215.9375 C118.89299805 216.37980957 119.78599609 216.82211914 120.70605469 217.27783203 C127.0820717 220.53753215 127.0820717 220.53753215 133.9375 220.375 C136.34798593 217.9757799 138.10244262 215.22591349 139.9375 212.375 C141.03210266 210.77484212 142.12849176 209.17590498 143.2265625 207.578125 C144.90923293 205.08571881 146.58614416 202.58964271 148.2578125 200.08984375 C149.7872355 197.82817341 151.35199194 195.59755231 152.9375 193.375 C153.54335937 192.50359375 154.14921875 191.6321875 154.7734375 190.734375 C158.31832484 188.50762266 162.00460391 189.62754881 165.9375 190.375 C170.38470816 191.56803433 174.74187793 192.99778768 179.109375 194.453125 C180.34995667 194.86157654 181.59053833 195.27002808 182.86871338 195.69085693 C185.47951328 196.55221265 188.08786717 197.42054344 190.69482422 198.29345703 C194.02373983 199.40703901 197.35946168 200.49846435 200.69752121 201.58427811 C203.90190707 202.63097779 207.09888073 203.69955747 210.296875 204.765625 C211.4896405 205.15228333 212.68240601 205.53894165 213.91131592 205.93731689 C224.77676431 209.61976237 224.77676431 209.61976237 227.9375 214.375 C228.55273438 217.52197266 228.55273438 217.52197266 228.53125 221.0390625 C228.52738281 222.97072266 228.52738281 222.97072266 228.5234375 224.94140625 C228.50893555 225.60930176 228.49443359 226.27719727 228.47949219 226.96533203 C228.43806577 228.97258666 228.44137973 230.98060303 228.4453125 232.98828125 C228.3069971 246.8889791 225.28895054 259.16011924 215.796875 269.6796875 C203.5319788 280.86238697 189.72579352 282.98236841 173.77197266 282.50683594 C124.20647743 280.20146407 75.66171465 262.58714022 36.9375 231.375 C36.16889648 230.75866699 36.16889648 230.75866699 35.38476562 230.12988281 C18.55310139 216.51633533 3.37098129 201.11055018 -9.0625 183.375 C-9.73998291 182.4166626 -9.73998291 182.4166626 -10.43115234 181.43896484 C-38.39821754 141.58717983 -60.57581116 85.57024888 -53.59765625 36.078125 C-51.23799559 25.07568357 -45.16233974 14.83683051 -35.9375 8.25 C-24.624582 1.05430425 -13.08192793 0.14691292 0 0 Z " fill="#010101" transform="translate(93.0625,38.625)"/>
<path d="M0 0 C0.598125 0.165 1.19625 0.33 1.8125 0.5 C5.15649939 1.26434272 7.75068088 0.8963639 11 0 C11.33 0.99 11.66 1.98 12 3 C11.34 3 10.68 3 10 3 C10 4.32 10 5.64 10 7 C8.53932801 6.54917531 7.08151968 6.08906463 5.625 5.625 C4.81289062 5.36976563 4.00078125 5.11453125 3.1640625 4.8515625 C1 4 1 4 -1 2 C-0.67 1.34 -0.34 0.68 0 0 Z " fill="#090808" transform="translate(180,297)"/>
<path d="M0 0 C0.77321882 2.98241547 1.41196203 5.97580475 2 9 C1.01 9.33 0.02 9.66 -1 10 C-2.1875 7.25 -2.1875 7.25 -3 4 C-1.625 1.625 -1.625 1.625 0 0 Z " fill="#0D0C0C" transform="translate(99,132)"/>
</svg>
